#!OML:ASF E:\Steps\Project 1\Capture day 1\Session 2\Subject.ASF
:FULLY-SPECIFIED
:DEGREES
799
root 9.02212 22.4875 -11.7073 -152.664 3.59359 178.575
lowerback -22.408 -2.0643 -8.16995
upperback 0.753123 -0.152966 -1.11362
thorax 13.573 -0.495445 3.37831
lowerneck -2.74777 -2.69623 -1.76977
upperneck 21.9257 -2.54181 2.86063
head 7.20935 -0.532294 1.12734
rclavicle 4.37326e-015 1.74931e-014
rhumerus -41.1288 -12.5026 -77.282
rradius 36.9634
rwrist -5.44145
rhand -9.35516 -50.938
rfingers 7.12502
rthumb 16.6045 -80.2477
lclavicle 4.37326e-015 1.74931e-014
lhumerus -28.6676 -1.81716 81.1974
lradius 29.2116
lwrist -0.389804
lhand -19.7184 -13.0113
lfingers 7.12502
lthumb 6.61168 16.8655
rfemur -38.8205 -1.21535 18.366
rtibia 53.0561
rfoot -10.8206 -6.58589
rtoes -34.7027
lfemur -43.1114 -7.07955 -20.9234
ltibia 25.1236
lfoot -7.92147 2.59772
ltoes -29.0852
800
root 9.01179 22.5076 -11.7463 -152.756 3.55331 178.714
lowerback -22.5162 -2.04219 -8.011
upperback 0.722855 -0.16557 -1.05778
thorax 13.5985 -0.493175 3.34742
lowerneck -2.07938 -2.65929 -1.71381
upperneck 21.4583 -2.48385 2.7768
head 6.93544 -0.518173 1.09603
rclavicle -1.98785e-015 -1.98785e-014
rhumerus -41.595 -12.857 -76.8859
rradius 37.0494
rwrist -5.52796
rhand -9.58672 -50.5582
rfingers 7.12502
rthumb 16.3816 -79.8864
lclavicle -1.98785e-015 -1.98785e-014
lhumerus -28.7125 -1.99231 81.3208
lradius 29.1943
lwrist -0.610539
lhand -19.9419 -13.4325
lfingers 7.12502
lthumb 6.39589 16.4509
rfemur -39.485 -1.26843 18.5859
rtibia 54.4049
rfoot -11.3138 -6.60074
rtoes -36.001
lfemur -42.4106 -7.24376 -20.7606
ltibia 24.2464
lfoot -7.75894 2.80065
ltoes -29.4065
801
root 9.00115 22.5254 -11.7912 -152.732 3.39867 178.957
lowerback -22.8551 -2.12621 -7.7364
upperback 0.843426 -0.333227 -0.97159
thorax 13.9514 -0.573771 3.22828
lowerneck -2.53226 -2.71481 -1.73062
upperneck 21.6235 -2.6005 2.8677
head 7.07326 -0.572005 1.11728
rclavicle 2.5842e-015 -2.06736e-014
rhumerus -41.4513 -13.1578 -76.7525
rradius 36.8358
rwrist -5.53268
rhand -10.4005 -49.3762
rfingers 7.12502
rthumb 15.5979 -78.7673
lclavicle 2.5842e-015 -2.06736e-014
lhumerus -28.4017 -1.797 81.2386
lradius 29.1261
lwrist -0.889468
lhand -19.7714 -12.912
lfingers 7.12502
lthumb 6.56049 16.9664
rfemur -40.3054 -1.43427 19.0202
rtibia 55.793
rfoot -11.8884 -6.80671
rtoes -37.9391
lfemur -41.87 -7.43448 -20.4707
ltibia 23.5026
lfoot -7.62228 2.99866
ltoes -30.5628
802
root 8.99211 22.5432 -11.8324 -152.664 3.30001 178.975
lowerback -23.0401 -2.2921 -7.75953
upperback 0.813179 -0.535269 -0.90183
thorax 14.0467 -0.671016 3.25078
lowerneck -2.75258 -2.64191 -1.52313
upperneck 21.6986 -2.49765 2.69487
head 7.12894 -0.522102 1.03163
rclavicle -6.75868e-015 -1.98785e-014
rhumerus -41.3831 -13.3766 -76.5373
rradius 36.4199
rwrist -5.53321
rhand -11.1706 -47.9697
rfingers 7.12502
rthumb 14.8561 -77.417
lclavicle -6.75868e-015 -1.98785e-014
lhumerus -28.2668 -1.5891 81.2015
lradius 29.0087
lwrist -1.10973
lhand -19.6025 -12.5153
lfingers 7.12502
lthumb 6.72352 17.3579
rfemur -41.1332 -1.6081 19.1659
rtibia 56.9746
rfoot -12.4675 -7.05793
rtoes -38.3492
lfemur -41.4276 -7.65969 -20.4442
ltibia 22.8409
lfoot -7.51473 3.19647
ltoes -31.6671
803
root 8.98604 22.5625 -11.8634 -152.77 3.29794 178.87
lowerback -22.935 -2.40045 -7.94042
upperback 0.650981 -0.635158 -0.889213
thorax 13.8107 -0.711575 3.33806
lowerneck -2.69015 -2.61486 -1.7947
upperneck 21.7426 -2.48114 2.99505
head 7.13938 -0.505779 1.17762
rclavicle -2.5842e-015 3.97569e-015
rhumerus -41.843 -13.8335 -76.0754
rradius 36.0994
rwrist -5.33187
rhand -11.0878 -48.4287
rfingers 7.12502
rthumb 14.9359 -77.8701
lclavicle -2.5842e-015 3.97569e-015
lhumerus -28.5539 -1.5927 81.2009
lradius 29.115
lwrist -1.32189
lhand -19.5471 -12.6325
lfingers 7.12502
lthumb 6.777 17.239
rfemur -41.6121 -1.64564 19.0855
rtibia 57.6609
rfoot -12.9159 -7.30602
rtoes -37.4488
lfemur -40.8505 -7.78675 -20.583
ltibia 22.2124
lfoot -7.41101 3.34274
ltoes -31.5557
804
root 8.98028 22.5834 -11.8881 -153.003 3.26577 178.937
lowerback -22.767 -2.44182 -7.89792
upperback 0.702147 -0.723721 -0.885257
thorax 13.7847 -0.752483 3.28771
lowerneck -3.07874 -2.66261 -1.79862
upperneck 21.9291 -2.57251 3.05683
head 7.27265 -0.54411 1.19016
rclavicle 1.0138e-014 4.13472e-014
rhumerus -41.9782 -14.5171 -75.725
rradius 35.7925
rwrist -4.82398
rhand -10.6094 -50.008
rfingers 7.12502
rthumb 15.3967 -79.4147
lclavicle 1.0138e-014 4.13472e-014
lhumerus -28.4399 -1.58882 81.1089
lradius 29.2
lwrist -1.32187
lhand -19.4527 -12.5708
lfingers 7.12502
lthumb 6.86817 17.2978
rfemur -41.9947 -1.57365 19.2012
rtibia 58.2806
rfoot -13.4897 -7.5457
rtoes -37.5248
lfemur -40.2215 -7.82261 -20.5244
ltibia 21.6944
lfoot -7.34216 3.448
ltoes -31.5057
